<svg xmlns="http://www.w3.org/2000/svg" viewBox="0 0 400 300" width="400" height="300">
  <rect width="400" height="300" fill="#FBF8F3"/>
  <g transform="translate(175,18) scale(0.55)">
    <path d="M45 5 C20 5 5 25 5 45 C5 75 45 110 45 110 C45 110 85 75 85 45 C85 25 70 5 45 5Z" fill="none" stroke="#A67C52" stroke-width="6"/>
    <path d="M28 48 L45 32 L62 48 L62 62 L28 62Z" fill="#1E3A3A"/>
    <rect x="40" y="48" width="10" height="10" fill="#FBF8F3"/>
  </g>
  <text x="200" y="88" text-anchor="middle" font-family="Arial, Helvetica, sans-serif" font-size="13" font-weight="700" letter-spacing="2" fill="#1E3A3A">BAGHESTAN</text>
  <g fill="#1E3A3A" transform="translate(140,105)">
    <rect x="20" y="30" width="100" height="100" rx="3"/>
    <polygon points="20,30 70,5 120,30" fill="#A67C52"/>
    <rect x="40" y="55" width="25" height="22" fill="#FBF8F3"/>
    <rect x="78" y="55" width="25" height="22" fill="#FBF8F3"/>
    <rect x="55" y="90" width="28" height="40" fill="#FBF8F3"/>
  </g>
  <text x="200" y="270" text-anchor="middle" font-family="Arial, Helvetica, sans-serif" font-size="18" font-weight="700" fill="#1E3A3A">Property</text>
</svg>
