<svg xmlns="http://www.w3.org/2000/svg" viewBox="0 0 400 300" width="400" height="300">
  <rect width="400" height="300" fill="#FBF8F3"/>
  <g transform="translate(175,18) scale(0.55)">
    <path d="M45 5 C20 5 5 25 5 45 C5 75 45 110 45 110 C45 110 85 75 85 45 C85 25 70 5 45 5Z" fill="none" stroke="#A67C52" stroke-width="6"/>
    <path d="M28 48 L45 32 L62 48 L62 62 L28 62Z" fill="#1E3A3A"/>
    <rect x="40" y="48" width="10" height="10" fill="#FBF8F3"/>
  </g>
  <text x="200" y="88" text-anchor="middle" font-family="Arial, Helvetica, sans-serif" font-size="13" font-weight="700" letter-spacing="2" fill="#1E3A3A">BAGHESTAN</text>
  <ellipse cx="200" cy="175" rx="130" ry="40" fill="#A67C52" opacity="0.35"/>
  <path d="M70 175 Q200 120 330 175 L330 200 Q200 230 70 200 Z" fill="#5A7A3A" opacity="0.65"/>
  <rect x="190" y="140" width="8" height="40" fill="#6B5B3A"/>
  <ellipse cx="194" cy="130" rx="28" ry="22" fill="#4A7C3F"/>
  <text x="200" y="270" text-anchor="middle" font-family="Arial, Helvetica, sans-serif" font-size="18" font-weight="700" fill="#1E3A3A">Land for Sale</text>
</svg>
